<?xml version="1.0" encoding="UTF-8"?>
<svg xmlns="http://www.w3.org/2000/svg" viewBox="0 0 464.4 464.4">
  <defs>
    <style>
      .cls-1 { fill: #003ec0; stroke-width: 0px; }
    </style>
  </defs>
  <g transform="translate(0,0)">
    <path class="cls-1" d="M55.8,111.6h0c0,30.8,25,55.8,55.8,55.8,0,30.8,25,55.8,55.8,55.8h0c30.8,0,55.8-25,55.8-55.8s-25-55.8-55.8-55.8c0-30.8-25-55.8-55.8-55.8h0s0,0,0,0C111.6,25,86.6,0,55.8,0h0C25,0,0,25,0,55.8s25,55.8,55.8,55.8Z"/>
  </g>
  <g transform="translate(241.2,0)">
    <path class="cls-1" d="M0,111.6c0,61.6,50,111.6,111.6,111.6h0v-111.6h111.6V0H0v111.6Z"/>
  </g>
  <g transform="translate(0,241.2)">
    <polygon class="cls-1" points="0 148.8 0 223.2 0 223.2 37.2 223.2 37.2 148.8 0 148.8 0 148.8"/>
  <rect class="cls-1" x="111.6" y="74.4" width="37.2" height="74.4"/>
  <rect class="cls-1" x="148.8" width="37.2" height="74.4"/>
  <rect class="cls-1" x="148.8" y="148.8" width="37.2" height="74.4"/>
  <rect class="cls-1" x="186" y="74.4" width="37.2" height="74.4"/>
  <polygon class="cls-1" points="0 0 0 0 0 74.4 0 74.4 37.2 74.4 37.2 0 0 0"/>
  <rect class="cls-1" x="37.2" y="74.4" width="37.2" height="74.4"/>
  <rect class="cls-1" x="74.4" width="37.2" height="74.4"/>
  <rect class="cls-1" x="74.4" y="148.8" width="37.2" height="74.4"/>
  </g>
  <g transform="translate(241.2,241.2)">
    <polygon class="cls-1" points="55.8 0 0 0 0 111.6 0 111.6 55.8 111.6 55.8 223.2 167.4 223.2 167.4 111.6 223.2 111.6 223.2 111.6 223.2 0 167.4 0 55.8 0"/>
  </g>
</svg>
