<?xml version="1.0"?>
<svg id="Capa_1" data-name="Capa 1" xmlns="http://www.w3.org/2000/svg" version="1.1" viewBox="0 0 629.21 159.59">
  <defs>
    <linearGradient id="mooza-icon-gradient" x1="0" y1="0.5" x2="1" y2="0.5" gradientUnits="objectBoundingBox">
      <stop offset="0" stop-color="#f9ea32"></stop>
      <stop offset="1" stop-color="#f9b03d"></stop>
    </linearGradient>
  </defs>
  <g>
    <path fill="#1b1444" d="M180.62,102.9c0-7.2-.18-13.4-.44-19.04-.1-2.26,1.71-4.14,3.98-4.14h8.98c2.08,0,3.8,1.6,3.97,3.67l.61,7.78h.46c3.76-6.05,10.85-13.21,24.01-13.21,10.32,0,18.27,5.74,21.63,14.38h.32c2.73-4.27,6.01-7.53,9.53-9.79,4.44-2.98,9.35-4.58,15.85-4.58,12.89,0,26.02,8.83,26.02,33.83v41.89c0,2.21-1.79,4-4,4h-11.22c-2.21,0-4-1.79-4-4v-39.12c0-13-4.5-20.62-13.91-20.62-6.74,0-11.68,4.75-13.71,10.38-.63,1.88-1,4.37-1,6.58v42.78c0,2.21-1.79,4-4,4h-11.22c-2.21,0-4-1.79-4-4v-41.07c0-10.98-4.39-18.66-13.45-18.66-7.39,0-12.33,5.79-14.18,11.13-.7,1.98-.98,4.31-.98,6.52v42.08c0,2.21-1.79,4-4,4h-11.22c-2.21,0-4-1.79-4-4v-50.77Z"></path>
    <path fill="#1b1444" d="M390.48,117.93c0,28.65-20.11,41.5-40.05,41.5-21.99,0-39.01-15.18-39.01-40.16s16.84-41.32,40.34-41.32,38.72,16.34,38.72,39.98ZM331.68,118.78c0,15,7.49,26.34,19.38,26.34s19.15-10.91,19.15-26.6c0-12.25-5.42-26.24-19.02-26.24s-19.51,13.5-19.51,26.5Z"></path>
    <path fill="#1b1444" d="M481.12,117.93c0,28.65-20.11,41.5-40.05,41.5-21.99,0-39.01-15.18-39.01-40.16s16.84-41.32,40.34-41.32,38.72,16.34,38.72,39.98ZM422.32,118.78c0,15,7.49,26.34,19.38,26.34s19.15-10.91,19.15-26.6c0-12.25-5.42-26.24-19.02-26.24s-19.51,13.5-19.51,26.5Z"></path>
    <path fill="#1b1444" d="M488.69,147.67c0-.89.3-1.76.85-2.47l28.49-36.37c4.01-4.81,7.34-8.63,11.41-13.07v-.34h-33.84c-2.21,0-4-1.79-4-4v-7.69c0-2.21,1.79-4,4-4h53.87c2.22,0,4.01,1.8,4,4.02l-.03,6.63c0,.89-.3,1.75-.85,2.45l-27.73,35.5c-3.84,4.67-7.51,9.16-11.51,13.32v.34h37.06c2.21,0,4,1.79,4,4v7.69c0,2.21-1.79,4-4,4h-57.72c-2.21,0-4-1.79-4-4v-6Z"></path>
    <path fill="#1b1444" d="M615.44,157.68c-1.97,0-3.65-1.44-3.96-3.39l-.82-5.29h-.47c-4.73,6.15-12.88,10.45-22.97,10.45-15.82,0-24.58-11.3-24.58-23.19,0-19.67,17.53-29.63,46.24-29.51v-1.29c0-5.12-2.03-13.64-15.83-13.59-5.85,0-11.92,1.44-16.83,3.63-2.24,1-4.83-.1-5.54-2.44l-1.53-5.01c-.58-1.9.29-3.94,2.09-4.8,6.04-2.9,14.85-5.28,25.21-5.28,25,0,32.14,15.77,32.14,32.87v28.07c0,5.14.19,10.16.62,14.38.24,2.37-1.59,4.4-3.97,4.4h-9.79ZM609.4,119.5c-13.91-.19-27.21,2.75-27.21,14.62,0,7.63,5.01,11.23,11.24,11.23,7.87,0,13.54-5.08,15.42-10.79.42-1.37.55-2.92.55-4.28v-10.77Z"></path>
  </g>
  <path fill="url(#mooza-icon-gradient)" d="M152.67,5.56c-9.81-7.28-23.19-7.42-33.14-.33h0c-12.5,8.9-15.89,26.01-7.73,39.01l13.66,21.74c.44.7.43,1.6-.02,2.29l-8.68,13.25c-.84,1.28-2.73,1.28-3.56,0l-40.65-62.78C59.87-.87,33.03-5.22,14.8,9.36h0C-1.04,22.04-4.68,44.68,6.39,61.68l59.33,91.11c5.93,9.11,19.28,9.06,25.15-.09l69.02-107.64c8.35-13.02,5.19-30.28-7.23-39.51ZM80.18,145.84c-.44.69-1.09,1.04-1.91,1.04s-1.45-.35-1.9-1.03L17.04,54.75c-7.54-11.58-5.09-26.83,5.7-35.46,4.79-3.84,10.55-5.86,16.66-5.86,9.13,0,17.54,4.56,22.48,12.21l40.65,62.78c2.34,3.61,6.06,5.98,10.23,6.61l-32.59,50.82ZM149.2,38.2l-13.22,20.62-13.41-21.35c-4.58-7.29-2.67-16.91,4.34-21.9,2.63-1.88,5.74-2.87,8.97-2.87s6.54,1.05,9.22,3.05c7.03,5.22,8.83,15.08,4.1,22.44Z"></path>
</svg>