<?xml version="1.0"?>
<svg fill="#ffffff" id="Capa_1" data-name="Capa 1" xmlns="http://www.w3.org/2000/svg" version="1.1" viewBox="0 0 255.77 256.25">
  <defs>
    
  </defs>
  <path class="cls-1" d="M15.54,144.7c21.49-10.18,52.86-16.58,96.73-16.58-43.8,0-75.13-6.38-96.62-16.53-31.08-14.68-11.2-62.72,21.16-51.12,22.36,8.02,49.02,25.66,79.99,56.62-31.14-31.14-48.81-57.95-56.76-80.4C48.57,4.3,96.38-15.48,111.17,15.54c10.25,21.5,16.7,52.94,16.7,96.98,0-43.84,6.39-75.19,16.55-96.68,14.69-31.07,62.68-11.23,51.13,21.14-7.99,22.39-25.64,49.1-56.65,80.11,31-31,57.7-48.65,80.07-56.66,32.36-11.57,52.23,36.41,21.16,51.12-21.48,10.17-52.82,16.56-96.66,16.56,43.91,0,75.29,6.42,96.77,16.61,31.04,14.73,11.18,62.65-21.18,51.11-22.4-7.99-49.12-25.64-80.16-56.71,31.06,31.06,48.72,57.81,56.7,80.23,11.53,32.38-36.41,52.21-51.13,21.15-10.19-21.5-16.6-52.89-16.6-96.81,0,44.05-6.46,75.5-16.71,97-14.79,31.01-62.6,11.22-51.13-21.17,7.95-22.45,25.62-49.26,56.76-80.4-30.99,31.02-57.68,48.67-80.07,56.67-32.36,11.57-52.24-36.41-21.18-51.11Z"></path>
</svg>