<?xml version="1.0"?>
<svg fill="#003ec0" id="Capa_1" data-name="Capa 1" xmlns="http://www.w3.org/2000/svg" version="1.1" viewBox="0 0 259.52 259.52">
  <defs>
    
  </defs>
  <path class="cls-1" d="M136.04,107.66c-5.57,0-10.85,3.9-13.64,10.02v23.93c2.78,6.26,8.07,10.3,13.64,10.3,9.04,0,15.16-9.18,15.16-22.4s-6.26-21.84-15.16-21.84Z"></path>
  <path class="cls-1" d="M129.76,0C58.1,0,0,58.1,0,129.76s58.1,129.76,129.76,129.76,129.76-58.1,129.76-129.76S201.42,0,129.76,0ZM144.18,208.16c-4.23,0-8.87-2.22-12.4-5.45-2.42-2.01-4.74-4.13-8.07-4.13s-5.54,2.62-6.75,7.56l-8.57-.2c-2.02-11.8,4.03-20.77,14.52-20.77,4.34,0,8.87,2.22,12.6,5.44,2.42,2.02,4.74,4.14,7.97,4.14,3.43,0,5.65-2.62,6.76-7.56l8.57.2c2.02,11.8-4.03,20.77-14.62,20.77ZM144.24,164.56c-9.74,0-17.11-3.62-24.21-11.83l-4.18,10.43h-16.69v-82.64c0-8.35-1.81-10.85-7.93-11.27,0-2.36.42-5.43,1.11-7.37l28.1-2.36c1.25,3.76,1.95,8.49,1.95,13.36v21.84l-.97,10.3h.83c6.82-6.96,12.94-9.6,21.85-9.6,18.37,0,31.86,14.47,31.86,34.09s-13.49,35.06-31.72,35.06Z"></path>
</svg>