<?xml version="1.0" encoding="UTF-8"?>
<svg id="Capa_1" data-name="Capa 1" xmlns="http://www.w3.org/2000/svg" version="1.1" viewBox="0 0 401.3 73.9">
  <defs>
    <style>
      .cls-1 {
        fill: #fff;
        stroke-width: 0px;
      }
    </style>
  </defs>
  <g>
    <path class="cls-1" d="M103.1,49.3c0,14.2-9.5,24.7-22.3,24.7s-12.1-2.6-17-8.3l-2.9,7.3h-11.8V14.8c0-5.9-1.3-7.6-5.6-7.9,0-1.7.3-3.8.8-5.2l19.8-1.7c.9,2.6,1.4,6,1.4,9.4v15.4l-.7,7.2h.6c4.8-4.9,9.1-6.8,15.4-6.8,12.9,0,22.4,10.2,22.4,24ZM85.7,49.3c0-9-4.4-15.4-10.7-15.4s-7.6,2.7-9.6,7v16.8c2,4.4,5.7,7.2,9.6,7.2,6.4,0,10.7-6.5,10.7-15.8h0Z"/>
    <path class="cls-1" d="M149.2,73.9c-6.4,0-10.7-2.8-11.9-7.2h-.3c-2.6,4.2-7.9,7.2-13.4,7.2-8.6,0-14.9-5.9-14.9-14s6.9-14.5,17.3-14.5,7.5.7,10.6,1.9v-8c0-4.3-2.6-7.2-6.8-7.2s-4,.6-5.6,1.7l-1.9,7.7c-5.9.6-9.4-1.7-9.4-6.2s1.2-6.2,3.3-9.9l8,2.1c3.9-1.7,7-2.2,10.6-2.2,10.6,0,18,6.5,18,15.7v16.5c0,8,1.2,9.6,7.1,9.3.4,4.5-3.8,7.2-10.9,7.2h0ZM129.4,65.4c2.8,0,5.7-1.7,7.2-4.1v-8.2c-1.5-1.1-4-1.9-6.4-1.9-4.7,0-7.9,2.9-7.9,7.2s2.9,7,7,7h0Z"/>
    <path class="cls-1" d="M166.1,64c0-5,3.8-7.6,9.6-7l1.7,7c1.6,1.9,4.7,2.6,7.3,2.6s6.6-2.1,6.6-5.5c0-9.1-23.6-5.9-23.6-21.7s6.4-14.1,16.8-14.1,7.3,1,9.1,2.1l8-2.1c2.4,3.9,3.3,7,3.3,9.6,0,4.6-4,7-9.6,6.3l-1.9-7c-1.2-1.2-3.2-2-5.7-2s-6,2.1-6,5.2c0,9.9,24.5,5.6,24.5,22.1s-7.4,14.4-17.5,14.5c-3.8,0-7.4-.8-11.2-2.8l-8,2.8c-2.4-4.1-3.4-7.3-3.4-10h0Z"/>
    <path class="cls-1" d="M248.1,67c0,4-5.7,7-13.2,7s-16.2-4.5-16.2-14.9v-24.1h-6.2c0-2.5.4-5.4,1-6.8l6.1-1.4.9-6.4c.9-4.6,4.4-7.1,9.9-7.1s3.1.1,4.7.2v13.2h11.6c0,5.1-2.1,7.2-7.5,7.6l-4,.3v23.4c0,5.8,1.8,8,5,8s4.2-1,6.4-2.5c1.1.9,1.7,2.1,1.7,3.3h0Z"/>
    <path class="cls-1" d="M252.4,49.4c0-15.1,12.1-24.1,27.5-24.1s27.4,9,27.4,24.1-12,24.5-27.4,24.5-27.5-9.1-27.5-24.5h0ZM290.4,49.6c0-11.1-3.7-18.6-10.6-18.6s-10.6,7.5-10.6,18.6,3.9,18.2,10.6,18.2,10.6-7.2,10.6-18.2Z"/>
    <path class="cls-1" d="M314.8,64c0-5,3.8-7.6,9.6-7l1.7,7c1.6,1.9,4.7,2.6,7.3,2.6s6.6-2.1,6.6-5.5c0-9.1-23.6-5.9-23.6-21.7s6.4-14.1,16.8-14.1,7.3,1,9.1,2.1l8-2.1c2.4,3.9,3.3,7,3.3,9.6,0,4.6-4,7-9.6,6.3l-1.9-7c-1.2-1.2-3.2-2-5.7-2s-6,2.1-6,5.2c0,9.9,24.5,5.6,24.5,22.1s-7.4,14.4-17.5,14.5c-3.8,0-7.4-.8-11.2-2.8l-8,2.8c-2.4-4.1-3.4-7.3-3.4-10h0Z"/>
  </g>
  <path class="cls-1" d="M14.9,53c-1.5-1.3-3-2.6-5-2.6s-3.5,1.6-4.2,4.7H.2c-1.3-7.5,2.5-13.1,9.1-13.1s5.5,1.4,7.9,3.4c1.5,1.3,3,2.6,5,2.6s3.5-1.6,4.2-4.7h5.4c1.3,7.5-2.5,13.1-9.1,13.1s-5.5-1.4-7.7-3.4h0Z"/>
  <path class="cls-1" d="M384.2,53c-1.5-1.3-3-2.6-5-2.6s-3.5,1.6-4.2,4.7h-5.4c-1.3-7.5,2.5-13.1,9.1-13.1s5.5,1.4,7.9,3.4c1.5,1.3,3,2.6,5,2.6s3.5-1.6,4.2-4.7h5.4c1.3,7.5-2.5,13.1-9.1,13.1s-5.5-1.4-7.7-3.4h0Z"/>
</svg>