<?xml version="1.0"?>
<svg fill="#003ec0" id="Capa_1" data-name="Capa 1" xmlns="http://www.w3.org/2000/svg" version="1.1" viewBox="0 0 401.33 113.62">
  <defs>
    
  </defs>
  <g>
    <path class="cls-1" d="M103.14,49.26c0,14.2-9.5,24.68-22.33,24.68-6.86,0-12.05-2.55-17.04-8.32l-2.94,7.34h-11.75V14.79c0-5.87-1.27-7.64-5.58-7.93,0-1.67.29-3.82.78-5.19l19.78-1.67c.88,2.65,1.37,5.97,1.37,9.4v15.37l-.69,7.25h.59c4.8-4.9,9.11-6.76,15.38-6.76,12.93,0,22.43,10.19,22.43,24ZM85.71,49.26c0-9.01-4.41-15.37-10.68-15.37-3.92,0-7.64,2.74-9.6,7.05v16.84c1.96,4.41,5.68,7.25,9.6,7.25,6.37,0,10.68-6.46,10.68-15.76Z"></path>
    <path class="cls-1" d="M149.16,73.94c-6.37,0-10.67-2.75-11.85-7.25h-.29c-2.55,4.21-7.93,7.25-13.42,7.25-8.62,0-14.89-5.88-14.89-14.01,0-8.62,6.95-14.49,17.33-14.49,3.53,0,7.54.68,10.58,1.86v-8.03c0-4.31-2.64-7.25-6.76-7.25-1.96,0-4.02.59-5.58,1.66l-1.86,7.74c-5.87.59-9.4-1.67-9.4-6.17,0-2.74,1.17-6.17,3.33-9.89l8.03,2.15c3.92-1.66,6.96-2.25,10.58-2.25,10.58,0,18.02,6.46,18.02,15.67v16.45c0,8.03,1.18,9.59,7.05,9.3.4,4.5-3.82,7.25-10.87,7.25ZM129.38,65.42c2.84,0,5.68-1.67,7.25-4.11v-8.23c-1.47-1.08-4.02-1.86-6.37-1.86-4.7,0-7.93,2.94-7.93,7.25s2.94,6.96,7.05,6.96Z"></path>
    <path class="cls-1" d="M166.08,63.95c0-4.99,3.82-7.64,9.6-6.95l1.67,6.95c1.56,1.86,4.7,2.64,7.34,2.64,3.72,0,6.56-2.06,6.56-5.48,0-9.11-23.6-5.88-23.6-21.74,0-8.32,6.37-14.1,16.75-14.1,3.53,0,7.34.98,9.11,2.06l8.03-2.06c2.35,3.92,3.33,6.96,3.33,9.6,0,4.6-4.02,6.95-9.6,6.27l-1.86-7.05c-1.17-1.18-3.23-1.96-5.68-1.96-3.43,0-5.97,2.06-5.97,5.19,0,9.89,24.48,5.58,24.48,22.13,0,8.81-7.44,14.4-17.53,14.49-3.82,0-7.35-.79-11.16-2.75l-8.03,2.75c-2.35-4.11-3.43-7.35-3.43-9.99Z"></path>
    <path class="cls-1" d="M248.13,66.99c0,4.02-5.68,6.96-13.22,6.96-9.6,0-16.16-4.5-16.16-14.89v-24.09h-6.17c0-2.45.39-5.39.98-6.76l6.07-1.37.88-6.37c.88-4.6,4.41-7.15,9.89-7.15,1.27,0,3.14.1,4.7.2v13.22h11.55c0,5.1-2.06,7.25-7.54,7.64l-4.02.29v23.41c0,5.78,1.76,8.03,4.99,8.03,2.15,0,4.21-.98,6.37-2.45,1.08.88,1.67,2.06,1.67,3.33Z"></path>
    <path class="cls-1" d="M252.43,49.36c0-15.08,12.14-24.09,27.52-24.09s27.42,9.01,27.42,24.09-12.05,24.48-27.42,24.48-27.52-9.11-27.52-24.48ZM290.44,49.56c0-11.07-3.72-18.61-10.58-18.61s-10.58,7.54-10.58,18.61,3.92,18.22,10.58,18.22,10.58-7.25,10.58-18.22Z"></path>
    <path class="cls-1" d="M314.8,63.95c0-4.99,3.82-7.64,9.6-6.95l1.67,6.95c1.56,1.86,4.7,2.64,7.34,2.64,3.72,0,6.56-2.06,6.56-5.48,0-9.11-23.6-5.88-23.6-21.74,0-8.32,6.37-14.1,16.75-14.1,3.53,0,7.34.98,9.11,2.06l8.03-2.06c2.35,3.92,3.33,6.96,3.33,9.6,0,4.6-4.02,6.95-9.6,6.27l-1.86-7.05c-1.17-1.18-3.23-1.96-5.68-1.96-3.43,0-5.97,2.06-5.97,5.19,0,9.89,24.48,5.58,24.48,22.13,0,8.81-7.44,14.4-17.53,14.49-3.82,0-7.35-.79-11.16-2.75l-8.03,2.75c-2.35-4.11-3.43-7.35-3.43-9.99Z"></path>
  </g>
  <g>
    <path class="cls-1" d="M.36,112.53l1.86-.5c-.17-.9-.2-1.76-.2-2.36v-10.32c0-1.39-.43-2.02-2.02-2.02,0-.3.06-.63.2-1.03.83-.1,3.55-.13,4.38-.13h2.59c6.47,0,9.46,3.72,9.46,8.56s-3.25,8.63-9.36,8.63H.23c0-.26.03-.53.13-.83ZM7,112.2c5.24,0,7.4-3.48,7.4-7.47s-2.16-7.3-7.37-7.3h-3.15v12.58c0,1.79.47,2.19,2.29,2.19h.83Z"></path>
    <path class="cls-1" d="M21.16,112.53l1.86-.5c-.17-.9-.2-1.76-.2-2.36v-10.49c0-1.36-.47-1.99-2.06-2.03.03-.26.1-.69.23-.99h5.48c0,.3-.07.6-.17.86l-1.83.47c.17.93.2,1.76.2,2.39v10.45c0,1.36.47,2.03,2.09,2.03-.03.26-.1.73-.2.99h-5.58c.03-.26.07-.5.17-.83Z"></path>
    <path class="cls-1" d="M42.39,108.75c0,2.82-2.12,4.88-4.98,4.88-1.16,0-2.39-.33-3.48-.89l-1.3.89c-.7-1.09-1.06-2.19-1.06-3.02,0-1.1.63-1.66,1.49-1.53l.5,1.96c.99.76,2.22,1.3,3.55,1.3,1.86,0,3.42-1.33,3.42-3.22,0-1.73-1.06-2.62-2.59-3.29l-2.16-.93c-2.32-.99-3.52-2.52-3.52-4.51,0-2.55,2.02-4.41,4.84-4.41.99,0,1.96.2,2.92.73l1.13-.76c.73,1.26,1.03,2.12,1.03,2.92,0,1.1-.6,1.66-1.52,1.46l-.5-1.96c-.73-.83-1.79-1.23-2.85-1.23-1.96,0-3.25,1.19-3.25,2.92,0,1.62,1.03,2.52,2.76,3.29l2.06.9c1.89.83,3.52,2.02,3.52,4.51Z"></path>
    <path class="cls-1" d="M57.98,113.36h-10.52c0-.26.03-.63.13-.83l1.89-.5c-.17-.86-.2-1.76-.2-2.36v-10.49c0-1.36-.47-1.99-2.06-2.03,0-.26.06-.69.2-.99h10.35l1.06-.23c.56.89.9,1.89.9,2.72,0,.93-.43,1.59-1.49,1.43l-.53-2.16c-.37-.33-1.19-.5-2.65-.5h-3.92v6.47h6.01c0,.8-.23,1.33-1.52,1.33h-4.48v4.81c0,1.56.47,2.05,2.36,2.05h1.72c1.49,0,2.29-.16,2.66-.53l.53-2.12c.86-.17,1.56.3,1.56,1.36,0,.69-.23,1.62-.93,2.82l-1.06-.26Z"></path>
    <path class="cls-1" d="M67.13,99.19h-.1v11.18c0,1.32.43,1.99,2.06,1.99,0,.26-.1.73-.2.99h-5.04c.03-.26.1-.6.17-.83l1.86-.5c-.17-.9-.2-1.76-.2-2.36v-10.52c0-1.29-.47-1.96-2.06-1.99.03-.26.1-.56.23-.99h3.39l10.55,14.44h.1v-11.45c0-1.29-.47-1.96-2.06-1.99,0-.26.1-.69.2-.99h5.01c-.03.3-.1.6-.2.86l-1.79.47c.17.93.2,1.76.2,2.39v10.39c0,1.3.06,1.62.63,2.06.06.6-.23,1.19-.99,1.19h-1.1l-10.65-14.34ZM67.2,93.08c.6-1.46,1.76-2.95,3.45-2.95,1.93,0,2.72,1.56,4.22,1.56,1.03,0,1.76-.76,2.49-1.63.37-.06.6.1.76.27-.6,1.46-1.76,2.95-3.45,2.95-1.86,0-2.72-1.56-4.22-1.56-1.03,0-1.76.76-2.49,1.62-.37.07-.6-.1-.76-.26Z"></path>
    <path class="cls-1" d="M85.14,104.76c0-4.78,3.95-8.82,9.13-8.82s9.16,4.05,9.16,8.82-3.95,8.86-9.16,8.86-9.13-4.05-9.13-8.86ZM101.21,104.73c0-3.75-2.32-7.57-6.94-7.57s-6.94,3.82-6.94,7.57,2.32,7.64,6.94,7.64,6.94-3.95,6.94-7.64Z"></path>
    <path class="cls-1" d="M119.18,112.53l1.86-.5c-.17-.9-.2-1.76-.2-2.36v-3.15l-4.95-9.1-1.36-.4c0-.2.07-.56.2-.86h4.85c-.04.23-.1.63-.2.9l-1.46.36,4.05,7.7h.06l4.08-7.7-1.29-.4c.03-.2.1-.56.2-.86h4.08c0,.23-.1.63-.2.9l-1.46.36-4.74,8.93v3.98c0,1.36.46,2.03,2.09,2.03-.04.26-.1.73-.2.99h-5.58c.03-.3.06-.56.16-.83Z"></path>
    <path class="cls-1" d="M156.1,110.04c0,1.19-2.95,3.58-6.57,3.58-6.21,0-9.32-4.38-9.32-8.76s3.32-8.93,9.09-8.93c1.46,0,2.92.33,4.35.99l1.36-.83c.73,1.32,1.1,2.45,1.1,3.29,0,1.16-.7,1.69-1.59,1.53l-.5-1.96c-1.23-1.29-3.05-1.79-4.65-1.79-4.61,0-6.97,3.82-6.97,7.64s2.36,7.46,7.14,7.46c2.16,0,4.38-.93,5.97-2.89.43.1.6.37.6.67Z"></path>
    <path class="cls-1" d="M159.74,104.76c0-4.78,3.95-8.82,9.13-8.82s9.16,4.05,9.16,8.82-3.95,8.86-9.16,8.86-9.13-4.05-9.13-8.86ZM175.81,104.73c0-3.75-2.32-7.57-6.94-7.57s-6.94,3.82-6.94,7.57,2.32,7.64,6.94,7.64,6.94-3.95,6.94-7.64Z"></path>
    <path class="cls-1" d="M182.16,112.53l1.86-.5c-.23-.9-.23-1.93-.2-2.55l.53-10.16c.1-1.46-.43-2.12-2.03-2.16.03-.26.1-.69.2-.99h4.41l5.34,13.11,5.21-13.11h4.28c-.03.33-.13.6-.17.86l-1.82.47c.13.86.2,1.73.23,2.32l.53,10.52c.03,1.36.43,2.03,2.05,2.03-.03.26-.1.73-.23.99h-5.54c.03-.26.1-.56.17-.83l1.89-.5c-.13-.9-.2-1.73-.23-2.36l-.53-11.18h-.1l-5.54,13.51-.9.2-5.61-13.71h-.13l-.66,11.15c-.1,1.73.26,2.66,2.22,2.72-.03.26-.1.73-.2.99h-5.21c0-.26.07-.6.17-.83Z"></path>
    <path class="cls-1" d="M209.13,106.66v-7.46c0-1.33-.46-1.99-2.06-2.03.03-.26.1-.69.24-.99h5.47c0,.3-.06.6-.17.86l-1.82.47c.16.93.2,1.96.2,2.55v6.6c0,3.79,2.19,5.68,5.17,5.68s5.28-1.93,5.28-5.71v-7.43c0-1.33-.43-1.99-2.06-2.03.03-.26.1-.69.23-.99h4.98c0,.3-.03.6-.13.86l-1.82.47c.17.93.2,1.76.2,2.39v6.77c0,5.11-3.52,6.97-6.87,6.97s-6.83-1.86-6.83-6.97Z"></path>
    <path class="cls-1" d="M232.56,99.19h-.1v11.18c0,1.32.43,1.99,2.06,1.99,0,.26-.1.73-.2.99h-5.04c.03-.26.1-.6.16-.83l1.86-.5c-.17-.9-.2-1.76-.2-2.36v-10.52c0-1.29-.46-1.96-2.06-1.99.03-.26.1-.56.24-.99h3.38l10.56,14.44h.1v-11.45c0-1.29-.46-1.96-2.05-1.99,0-.26.1-.69.2-.99h5.01c-.04.3-.1.6-.2.86l-1.8.47c.17.93.2,1.76.2,2.39v10.39c0,1.3.07,1.62.63,2.06.06.6-.24,1.19-1,1.19h-1.09l-10.65-14.34Z"></path>
    <path class="cls-1" d="M251.46,112.53l1.86-.5c-.17-.9-.2-1.76-.2-2.36v-10.49c0-1.36-.46-1.99-2.06-2.03.03-.26.1-.69.24-.99h5.47c0,.3-.06.6-.17.86l-1.82.47c.16.93.2,1.76.2,2.39v10.45c0,1.36.46,2.03,2.09,2.03-.03.26-.1.73-.2.99h-5.57c.03-.26.06-.5.16-.83Z"></path>
    <path class="cls-1" d="M277.11,110.04c0,1.19-2.95,3.58-6.57,3.58-6.21,0-9.32-4.38-9.32-8.76s3.32-8.93,9.09-8.93c1.46,0,2.92.33,4.35.99l1.36-.83c.73,1.32,1.1,2.45,1.1,3.29,0,1.16-.7,1.69-1.59,1.53l-.5-1.96c-1.23-1.29-3.05-1.79-4.65-1.79-4.61,0-6.97,3.82-6.97,7.64s2.36,7.46,7.14,7.46c2.16,0,4.38-.93,5.97-2.89.43.1.6.37.6.67Z"></path>
    <path class="cls-1" d="M296.31,112.53c0,.26-.1.56-.2.83h-4.68c.03-.23.1-.53.2-.83l1.3-.4-1.76-4.61h-6.77l-1.76,4.61,1.26.4c0,.26-.07.56-.17.83h-3.98c.03-.23.1-.53.2-.83l1.26-.4,6.17-15.96,1.33-.23,6.27,16.2,1.33.4ZM284.86,106.29h5.84l-2.92-7.9h-.03l-2.89,7.9Z"></path>
    <path class="cls-1" d="M315.21,110.04c0,1.19-2.95,3.58-6.57,3.58-6.21,0-9.32-4.38-9.32-8.76s3.32-8.93,9.09-8.93c1.46,0,2.92.33,4.35.99l1.36-.83c.73,1.32,1.1,2.45,1.1,3.29,0,1.16-.7,1.69-1.59,1.53l-.5-1.96c-1.23-1.29-3.05-1.79-4.65-1.79-4.61,0-6.97,3.82-6.97,7.64s2.36,7.46,7.14,7.46c2.16,0,4.38-.93,5.97-2.89.43.1.6.37.6.67Z"></path>
    <path class="cls-1" d="M319.74,112.53l1.86-.5c-.17-.9-.2-1.76-.2-2.36v-10.49c0-1.36-.46-1.99-2.06-2.03.03-.26.1-.69.24-.99h5.47c0,.3-.06.6-.17.86l-1.82.47c.16.93.2,1.76.2,2.39v10.45c0,1.36.46,2.03,2.09,2.03-.03.26-.1.73-.2.99h-5.57c.03-.26.06-.5.16-.83Z"></path>
    <path class="cls-1" d="M329.5,104.76c0-4.78,3.95-8.82,9.13-8.82s9.16,4.05,9.16,8.82-3.95,8.86-9.16,8.86-9.13-4.05-9.13-8.86ZM345.57,104.73c0-3.75-2.32-7.57-6.94-7.57s-6.94,3.82-6.94,7.57,2.32,7.64,6.94,7.64,6.94-3.95,6.94-7.64Z"></path>
    <path class="cls-1" d="M355.45,99.19h-.1v11.18c0,1.32.43,1.99,2.06,1.99,0,.26-.1.73-.2.99h-5.04c.03-.26.1-.6.16-.83l1.86-.5c-.17-.9-.2-1.76-.2-2.36v-10.52c0-1.29-.46-1.96-2.06-1.99.03-.26.1-.56.24-.99h3.38l10.56,14.44h.1v-11.45c0-1.29-.46-1.96-2.05-1.99,0-.26.1-.69.2-.99h5.01c-.04.3-.1.6-.2.86l-1.8.47c.17.93.2,1.76.2,2.39v10.39c0,1.3.07,1.62.63,2.06.06.6-.24,1.19-1,1.19h-1.09l-10.65-14.34Z"></path>
    <path class="cls-1" d="M384.71,113.36h-10.52c0-.26.03-.63.13-.83l1.89-.5c-.17-.86-.2-1.76-.2-2.36v-10.49c0-1.36-.46-1.99-2.06-2.03,0-.26.07-.69.2-.99h10.36l1.06-.23c.56.89.9,1.89.9,2.72,0,.93-.43,1.59-1.49,1.43l-.53-2.16c-.37-.33-1.2-.5-2.66-.5h-3.91v6.47h6.01c0,.8-.24,1.33-1.53,1.33h-4.48v4.81c0,1.56.46,2.05,2.36,2.05h1.73c1.49,0,2.29-.16,2.65-.53l.53-2.12c.87-.17,1.56.3,1.56,1.36,0,.69-.23,1.62-.93,2.82l-1.06-.26Z"></path>
    <path class="cls-1" d="M401.32,108.75c0,2.82-2.12,4.88-4.98,4.88-1.16,0-2.39-.33-3.48-.89l-1.29.89c-.7-1.09-1.06-2.19-1.06-3.02,0-1.1.63-1.66,1.49-1.53l.5,1.96c1,.76,2.23,1.3,3.55,1.3,1.86,0,3.42-1.33,3.42-3.22,0-1.73-1.06-2.62-2.59-3.29l-2.16-.93c-2.32-.99-3.52-2.52-3.52-4.51,0-2.55,2.02-4.41,4.84-4.41.99,0,1.96.2,2.92.73l1.13-.76c.73,1.26,1.03,2.12,1.03,2.92,0,1.1-.6,1.66-1.53,1.46l-.5-1.96c-.73-.83-1.8-1.23-2.86-1.23-1.96,0-3.25,1.19-3.25,2.92,0,1.62,1.03,2.52,2.75,3.29l2.06.9c1.89.83,3.52,2.02,3.52,4.51Z"></path>
  </g>
  <path class="cls-1" d="M14.85,53.03c-1.51-1.26-2.96-2.58-5.04-2.58s-3.46,1.64-4.22,4.72l-5.35-.12c-1.26-7.36,2.52-12.97,9.06-12.97,2.71,0,5.54,1.39,7.87,3.4,1.51,1.26,2.96,2.58,4.97,2.58,2.14,0,3.53-1.64,4.22-4.72l5.35.12c1.26,7.36-2.52,12.97-9.13,12.97-2.65,0-5.54-1.39-7.74-3.4Z"></path>
  <path class="cls-1" d="M384.22,53.03c-1.51-1.26-2.96-2.58-5.03-2.58s-3.46,1.64-4.22,4.72l-5.35-.12c-1.26-7.36,2.52-12.97,9.07-12.97,2.71,0,5.54,1.39,7.87,3.4,1.51,1.26,2.96,2.58,4.97,2.58,2.14,0,3.53-1.64,4.22-4.72l5.35.12c1.26,7.36-2.52,12.97-9.13,12.97-2.64,0-5.54-1.39-7.74-3.4Z"></path>
</svg>