<?xml version="1.0" encoding="UTF-8"?>
<svg id="Capa_1" data-name="Capa 1" xmlns="http://www.w3.org/2000/svg" version="1.1" viewBox="0 0 223.2 223.2">
  <defs>
    <style>
      .cls-1 {
        fill: #003ec0;
        stroke-width: 0px;
      }
    </style>
  </defs>
  <path class="cls-1" d="M223.2,0h-111.6c61.6,0,111.6,50,111.6,111.6V0Z"/>
  <path class="cls-1" d="M111.6,0H0v111.6C0,50,50,0,111.6,0Z"/>
  <path class="cls-1" d="M223.2,111.6c0,61.6-50,111.6-111.6,111.6h111.6v-111.6Z"/>
  <path class="cls-1" d="M0,111.6v111.6h111.6C50,223.2,0,173.2,0,111.6Z"/>
  <path class="cls-1" d="M184.1,111.6c0-40-32.5-72.5-72.5-72.5S39.1,71.6,39.1,111.6s32.5,72.5,72.5,72.5,72.5-32.5,72.5-72.5ZM111.6,145c-18.4,0-33.4-15-33.4-33.4s15-33.4,33.4-33.4,33.4,15,33.4,33.4-15,33.4-33.4,33.4Z"/>
</svg>