<?xml version="1.0" encoding="UTF-8"?>
<svg id="Capa_1" data-name="Capa 1" xmlns="http://www.w3.org/2000/svg" version="1.1" viewBox="0 0 223.2 223.2">
  <defs>
    <style>
      .cls-1 {
        fill: #003ec0;
        stroke-width: 0px;
      }
    </style>
  </defs>
  <path class="cls-1" d="M37.3,223.2c19.8,0,35.9-15.4,37.2-34.8,1.2,19.4,17.4,34.8,37.2,34.8s37.3-16.7,37.3-37.3-15.4-35.9-34.8-37.2c19.5-1.2,34.8-17.4,34.8-37.2s-15.4-35.9-34.8-37.2c18.7-1.2,33.6-16.1,34.8-34.8,1.2,19.4,17.4,34.8,37.2,34.8s37.3-16.7,37.3-37.3S206.5,0,185.9,0s-35.9,15.4-37.2,34.8C147.5,15.4,131.3,0,111.6,0s-37.3,16.7-37.3,37.3,15.4,35.9,34.8,37.2c-19.5,1.2-34.8,17.4-34.8,37.2s15.4,35.9,34.8,37.2c-18.7,1.2-33.6,16.1-34.8,34.8-1.2-19.4-17.4-34.8-37.2-34.8S0,165.3,0,185.9s16.7,37.3,37.3,37.3Z"/>
</svg>