<?xml version="1.0" encoding="UTF-8"?>
<svg id="Capa_1" data-name="Capa 1" xmlns="http://www.w3.org/2000/svg" version="1.1" viewBox="0 0 223.2 223.2">
  <defs>
    <style>
      .cls-1 {
        fill: #003ec0;
        stroke-width: 0px;
      }
    </style>
  </defs>
  <path class="cls-1" d="M176.9,0h0c-24.4,0-46.9,7.8-65.3,21.1C93.2,7.8,70.7,0,46.3,0h0C5.1,0-15.5,49.8,13.6,78.9l32.7,32.7-32.7,32.7c-29.1,29.1-8.5,78.9,32.7,78.9h0c24.4,0,46.9-7.8,65.3-21.1,18.4,13.3,40.9,21.1,65.3,21.1h0c41.2,0,61.8-49.8,32.7-78.9l-32.7-32.7,32.7-32.7C238.7,49.8,218,0,176.9,0Z"/>
</svg>