<?xml version="1.0" encoding="UTF-8"?>
<svg id="Capa_1" data-name="Capa 1" xmlns="http://www.w3.org/2000/svg" version="1.1" viewBox="0 0 223.2 223.2">
  <defs>
    <style>
      .cls-1 {
        fill: #003ec0;
        stroke-width: 0px;
      }
    </style>
  </defs>
  <path class="cls-1" d="M144.3,13.6l-32.7,32.7L78.9,13.6C49.8-15.5,0,5.1,0,46.3h0c0,24.4,7.8,46.9,21.1,65.3C7.8,129.9,0,152.5,0,176.9h0c0,41.2,49.8,61.8,78.9,32.7l32.7-32.7,32.7,32.7c29.1,29.1,78.9,8.5,78.9-32.7h0c0-24.4-7.8-46.9-21.1-65.3,13.3-18.4,21.1-40.9,21.1-65.3h0c0-41.2-49.8-61.8-78.9-32.7Z"/>
</svg>