<?xml version="1.0" encoding="UTF-8"?>
<svg id="Capa_1" data-name="Capa 1" xmlns="http://www.w3.org/2000/svg" version="1.1" viewBox="0 0 223.2 223.2">
  <defs>
    <style>
      .cls-1 {
        fill: #003ec0;
        stroke-width: 0px;
      }
    </style>
  </defs>
  <path class="cls-1" d="M0,185.9c0,20.6,16.7,37.3,37.3,37.3s35.9-15.4,37.2-34.8c1.2,19.5,17.4,34.8,37.2,34.8s35.9-15.4,37.2-34.8c1.2,19.5,17.4,34.8,37.2,34.8s37.3-16.7,37.3-37.3-15.4-35.9-34.8-37.2c19.4-1.2,34.8-17.4,34.8-37.2s-15.4-35.9-34.8-37.2c19.4-1.2,34.8-17.4,34.8-37.2S206.5,0,185.9,0s-35.9,15.4-37.2,34.8C147.5,15.4,131.3,0,111.6,0s-35.9,15.4-37.2,34.8C73.2,15.4,57,0,37.3,0S0,16.7,0,37.3s15.4,35.9,34.8,37.2C15.4,75.7,0,91.8,0,111.6s15.4,35.9,34.8,37.2C15.4,150,0,166.1,0,185.9ZM74.4,183.5c-1.2-18.7-16.1-33.6-34.8-34.8,18.7-1.2,33.6-16.1,34.8-34.8,1.2,18.7,16.1,33.6,34.8,34.8-18.7,1.2-33.6,16.1-34.8,34.8ZM148.7,183.5c-1.2-18.7-16.1-33.6-34.8-34.8,18.7-1.2,33.6-16.1,34.8-34.8,1.2,18.7,16.1,33.6,34.8,34.8-18.7,1.2-33.6,16.1-34.8,34.8ZM148.7,39.7c1.2,18.7,16.1,33.6,34.8,34.8-18.7,1.2-33.6,16.1-34.8,34.8-1.2-18.7-16.1-33.6-34.8-34.8,18.7-1.2,33.6-16.1,34.8-34.8ZM74.4,39.7c1.2,18.7,16.1,33.6,34.8,34.8-18.7,1.2-33.6,16.1-34.8,34.8-1.2-18.7-16.1-33.6-34.8-34.8,18.7-1.2,33.6-16.1,34.8-34.8Z"/>
</svg>