<?xml version="1.0" encoding="UTF-8"?>
<svg id="Capa_1" data-name="Capa 1" xmlns="http://www.w3.org/2000/svg" version="1.1" viewBox="0 0 223.2 223.2">
  <defs>
    <style>
      .cls-1 {
        fill: #003ec0;
        stroke-width: 0px;
      }
    </style>
  </defs>
  <path class="cls-1" d="M60.7,218.6c2.9,2.9,6.9,4.6,11,4.6h79.6c4.1,0,8.1-1.6,11-4.6l56.2-56.2c2.9-2.9,4.6-6.9,4.6-11v-79.5c0-4.1-1.6-8.1-4.6-11L162.3,4.6c-2.9-2.9-6.9-4.6-11-4.6h-79.5c-4.1,0-8.1,1.6-11,4.6L4.6,60.8c-2.9,2.9-4.6,6.9-4.6,11v79.6c0,4.1,1.6,8.1,4.6,11l56.2,56.2Z"/>
</svg>