<?xml version="1.0" encoding="UTF-8"?>
<svg id="Capa_1" data-name="Capa 1" xmlns="http://www.w3.org/2000/svg" version="1.1" viewBox="0 0 222.7 223.1">
  <defs>
    <style>
      .cls-1 {
        fill: #003ec0;
        stroke-width: 0px;
      }
    </style>
  </defs>
  <path class="cls-1" d="M32,170.5c19.5-7,42.8-22.3,69.8-49.4-27.1,27.1-42.4,50.3-49.4,69.9-10,28.2,31.7,45.5,44.5,18.4,8.9-18.7,14.5-46.1,14.5-84.3,0,38.4,5.6,65.7,14.6,84.5,12.9,27,54.5,9.8,44.5-18.4-6.9-19.6-22.3-42.9-49.4-70,27,27,50.2,42.4,69.7,49.4,28.2,10.1,45.5-31.7,18.4-44.5-18.7-8.9-46-14.4-84.2-14.4,38.1,0,65.4-5.6,84.1-14.4,27.1-12.8,9.8-54.6-18.4-44.5-19.5,7-42.7,22.3-69.7,49.3,27.1-27.1,42.5-50.5,49.4-70,10-28.2-31.7-45.4-44.5-18.4-8.9,18.7-14.5,46.1-14.5,84.5,0-38.2-5.6-65.5-14.4-84.2-12.8-27.1-54.6-9.8-44.5,18.4,7,19.5,22.3,42.8,49.3,69.8-27-27-50.2-42.4-69.7-49.3C3.9,42.6-13.4,84.3,13.6,97.1c18.7,8.9,46,14.4,84.2,14.4-38.2,0-65.6,5.6-84.3,14.5-27,12.8-9.7,54.6,18.4,44.5Z"/>
</svg>