<?xml version="1.0" encoding="UTF-8"?>
<svg id="Capa_1" data-name="Capa 1" xmlns="http://www.w3.org/2000/svg" version="1.1" viewBox="0 0 223.2 223.2">
  <defs>
    <style>
      .cls-1 {
        fill: #003ec0;
        stroke-width: 0px;
      }
    </style>
  </defs>
  <path class="cls-1" d="M209.6,78.9c-2-2-4.1-3.8-6.4-5.3.5-2.7.8-5.4.8-8.2,0-12.8-5.2-24.3-13.5-32.7-8.4-8.4-19.9-13.6-32.7-13.6s-5.6.3-8.2.8c-1.6-2.2-3.3-4.4-5.3-6.4C135.2,4.5,123.4,0,111.6,0s-23.7,4.5-32.7,13.5c-2,2-3.7,4.1-5.3,6.4-2.7-.5-5.4-.8-8.3-.8-25.5,0-46.2,20.7-46.2,46.2s.3,5.6.8,8.2c-2.2,1.6-4.4,3.3-6.4,5.3C4.5,87.9,0,99.7,0,111.6s4.5,23.7,13.6,32.7c2,2,4.1,3.7,6.4,5.3-.5,2.7-.8,5.4-.8,8.3,0,12.8,5.2,24.3,13.6,32.7,8.3,8.3,19.9,13.5,32.7,13.5s5.6-.3,8.3-.8c1.6,2.2,3.3,4.4,5.3,6.4,9,9,20.8,13.6,32.7,13.6s23.7-4.5,32.7-13.6c2-2,3.8-4.1,5.3-6.4,2.7.5,5.4.8,8.2.8,25.5,0,46.2-20.7,46.2-46.2s-.3-5.6-.8-8.3c2.2-1.6,4.4-3.3,6.4-5.3,18-18,18-47.3,0-65.3Z"/>
</svg>