<?xml version="1.0" encoding="UTF-8"?>
<svg id="Capa_1" data-name="Capa 1" xmlns="http://www.w3.org/2000/svg" version="1.1" viewBox="0 0 223.2 223.2">
  <defs>
    <style>
      .cls-1 {
        fill: #003ec0;
        stroke-width: 0px;
      }
    </style>
  </defs>
  <path class="cls-1" d="M111.6,193.2c32.8,19,70.9,29.9,111.6,29.9h0c0-40.7-10.9-78.7-29.9-111.6C212.2,78.7,223.2,40.7,223.2,0h0s0,0,0,0c-40.7,0-78.7,10.9-111.6,29.9C78.7,10.9,40.7,0,0,0h0c0,40.7,10.9,78.7,29.9,111.6C10.9,144.4,0,182.5,0,223.2h0s0,0,0,0c40.7,0,78.7-10.9,111.6-29.9Z"/>
</svg>