<?xml version="1.0" encoding="UTF-8"?>
<svg id="Capa_1" data-name="Capa 1" xmlns="http://www.w3.org/2000/svg" version="1.1" viewBox="0 0 223.2 223.2">
  <defs>
    <style>
      .cls-1 {
        fill: #003ec0;
        stroke-width: 0px;
      }
    </style>
  </defs>
  <path class="cls-1" d="M0,111.6c10.1,17.4,21.8,33.8,35,48.7,7.9-17.4,17.7-33.7,29.1-48.7-11.5-15-21.3-31.3-29.1-48.7-13.2,15-24.9,31.3-35,48.7Z"/>
  <path class="cls-1" d="M160.3,188.1c4.9-4.3,9.7-8.8,14.4-13.5,4.6-4.6,9.1-9.4,13.4-14.3,13.2-15,24.9-31.3,35-48.7-10.1-17.4-21.8-33.8-35-48.7-8.7-9.9-17.9-19.2-27.8-27.8-15-13.2-31.3-25-48.7-35-17.4,10-33.8,21.8-48.7,35,17.4,7.9,33.8,17.7,48.7,29.1,17.8,13.7,33.8,29.6,47.4,47.4-13.6,17.8-29.6,33.8-47.4,47.4-15,11.4-31.3,21.3-48.7,29.1,15,13.2,31.3,25,48.7,35,17.4-10.1,33.7-21.8,48.7-35Z"/>
</svg>