<?xml version="1.0" encoding="UTF-8"?>
<svg id="Capa_1" data-name="Capa 1" xmlns="http://www.w3.org/2000/svg" version="1.1" viewBox="0 0 223.2 223.2">
  <defs>
    <style>
      .cls-1 {
        fill: #003ec0;
        stroke-width: 0px;
      }
    </style>
  </defs>
  <path class="cls-1" d="M44.6,223.2h178.5V0h0S0,0,0,0H0s0,0,0,0v223.2h44.6ZM133.9,66.9c0-12.3,10-22.3,22.3-22.3h0c12.3,0,22.3,10,22.3,22.3v22.3h-44.6v-22.3ZM133.9,133.9h22.3c12.3,0,22.3,10,22.3,22.3s-10,22.3-22.3,22.3h-22.3v-44.6ZM44.6,66.9c0-12.3,10-22.3,22.3-22.3h22.3v44.6h-22.3c-12.3,0-22.3-10-22.3-22.3h0ZM44.6,133.9h44.6v22.3c0,12.3-10,22.3-22.3,22.3h0c-12.3,0-22.3-10-22.3-22.3v-22.3Z"/>
</svg>