<?xml version="1.0" encoding="UTF-8"?>
<svg id="Capa_1" data-name="Capa 1" xmlns="http://www.w3.org/2000/svg" version="1.1" viewBox="0 0 223.2 223.2">
  <defs>
    <style>
      .cls-1 {
        fill: #003ec0;
        stroke-width: 0px;
      }
    </style>
  </defs>
  <path class="cls-1" d="M223.2,0h0s-223.2,0-223.2,0h0v223.2h223.2V0h0ZM89.3,178.5h-22.3c-12.3,0-22.3-10-22.3-22.3h0c0-12.3,10-22.3,22.3-22.3h22.3v44.6ZM89.3,89.3h-44.6v-22.3c0-12.3,10-22.3,22.3-22.3h0c12.3,0,22.3,10,22.3,22.3v22.3ZM178.5,156.2c0,12.3-10,22.3-22.3,22.3s-22.3-10-22.3-22.3v-22.3h44.6v22.3ZM178.5,66.9c0,12.3-10,22.3-22.3,22.3h-22.3v-44.6h22.3c12.3,0,22.3,10,22.3,22.3h0Z"/>
</svg>