<?xml version="1.0" encoding="UTF-8"?>
<svg id="Capa_1" data-name="Capa 1" xmlns="http://www.w3.org/2000/svg" version="1.1" viewBox="0 0 223.2 223.2">
  <defs>
    <style>
      .cls-1 {
        fill: #003ec0;
        stroke-width: 0px;
      }
    </style>
  </defs>
  <path class="cls-1" d="M55.8,0h0C25,0,0,25,0,55.8h0c0,30.8,25,55.8,55.8,55.8h0c30.8,0,55.8-25,55.8-55.8h0C111.6,25,86.6,0,55.8,0Z"/>
  <path class="cls-1" d="M223.2,167.4c0-30.8-25-55.8-55.8-55.8h0c-30.8,0-55.8,25-55.8,55.8h0c0,30.8,25,55.8,55.8,55.8h0c30.8,0,55.8-25,55.8-55.8h0Z"/>
</svg>