<?xml version="1.0" encoding="UTF-8"?>
<svg id="Capa_1" data-name="Capa 1" xmlns="http://www.w3.org/2000/svg" version="1.1" viewBox="0 0 223.2 223.2">
  <defs>
    <style>
      .cls-1 {
        fill: #003ec0;
        stroke-width: 0px;
      }
    </style>
  </defs>
  <path class="cls-1" d="M223.2,0h-111.6c45.8,0,85.1,27.6,102.3,67H9.3c5.6-12.9,13.6-24.5,23.4-34.3C52.9,12.5,80.7,0,111.6,0H0v111.6h0v111.6c0-.2,0-.3,0-.5v.5h223.2v-44.6h0v-67h0v-44.6h0V0ZM0,111.6H0c0-.2,0-.3,0-.5v.5ZM9.3,178.5c17.2-39.3,56.4-66.9,102-67h.5c30.7,0,58.5,12.5,78.7,32.7,9.8,9.8,17.7,21.4,23.4,34.3H9.3Z"/>
</svg>