<?xml version="1.0" encoding="UTF-8"?>
<svg id="Capa_1" data-name="Capa 1" xmlns="http://www.w3.org/2000/svg" version="1.1" viewBox="0 0 223.2 223.2">
  <defs>
    <style>
      .cls-1 {
        fill: #003ec0;
        stroke-width: 0px;
      }
    </style>
  </defs>
  <path class="cls-1" d="M67,223.2h44.6s67,0,67,0h0s44.6,0,44.6,0V0h-.5c.2,0,.3,0,.5,0H0v111.6c0-30.8,12.5-58.7,32.7-78.9,9.8-9.8,21.4-17.7,34.3-23.4v204.5C27.6,196.6,0,157.3,0,111.6v111.6h67ZM111.6,111.4c0-45.6,27.6-84.8,67-102v204.5c-12.9-5.6-24.5-13.6-34.3-23.4-20.2-20.2-32.6-47.9-32.7-78.7v-.5ZM111.6,0h0s-.5,0-.5,0c.2,0,.3,0,.5,0Z"/>
</svg>