<?xml version="1.0" encoding="UTF-8"?>
<svg id="Capa_1" data-name="Capa 1" xmlns="http://www.w3.org/2000/svg" version="1.1" viewBox="0 0 223.2 223.2">
  <defs>
    <style>
      .cls-1 {
        fill: #003ec0;
        stroke-width: 0px;
      }
    </style>
  </defs>
  <polygon class="cls-1" points="223.1 93 223.1 74.4 223.2 74.4 223.2 37.2 223.1 37.2 185.9 37.2 185.9 74.4 185.9 93 130.1 93 130.1 37.2 148.7 37.2 185.9 37.2 185.9 0 185.9 0 148.7 0 148.7 0 130.1 0 130.1 0 93 0 93 0 74.4 0 74.4 0 37.2 0 37.2 0 37.2 37.2 74.4 37.2 93 37.2 93 93 37.2 93 37.2 74.4 37.2 37.2 0 37.2 0 37.2 0 74.4 0 74.4 0 93 0 93 0 130.1 0 130.1 0 148.8 0 148.8 0 185.9 0 185.9 37.2 185.9 37.2 148.8 37.2 130.1 93 130.1 93 185.9 74.4 185.9 37.2 185.9 37.2 223.1 37.2 223.2 74.4 223.2 74.4 223.1 148.7 223.1 148.7 223.2 185.9 223.2 185.9 223.1 185.9 185.9 148.7 185.9 130.1 185.9 130.1 130.1 185.9 130.1 185.9 148.8 185.9 185.9 223.1 185.9 223.2 185.9 223.2 148.8 223.1 148.8 223.1 130.1 223.1 93"/>
</svg>