<?xml version="1.0" encoding="UTF-8"?>
<svg id="Capa_1" data-name="Capa 1" xmlns="http://www.w3.org/2000/svg" version="1.1" viewBox="0 0 223.2 223.2">
  <defs>
    <style>
      .cls-1 {
        fill: #003ec0;
        stroke-width: 0px;
      }
    </style>
  </defs>
  <path class="cls-1" d="M19.1,65.4c0,2.8.3,5.6.8,8.2-2.2,1.6-4.4,3.3-6.4,5.3C4.5,87.9,0,99.8,0,111.6s4.5,23.7,13.5,32.7c2,2,4.1,3.7,6.4,5.3-.5,2.7-.8,5.4-.8,8.3,0,25.5,20.7,46.2,46.2,46.2s5.6-.3,8.2-.8c1.6,2.2,3.3,4.4,5.3,6.4,9,9,20.8,13.6,32.7,13.6s23.7-4.5,32.7-13.6c2-2,3.7-4.1,5.3-6.4,2.7.5,5.4.8,8.3.8,12.8,0,24.3-5.2,32.7-13.6,8.3-8.3,13.5-19.9,13.5-32.7s-.3-5.6-.8-8.3c2.2-1.6,4.4-3.3,6.4-5.3,9-9,13.6-20.8,13.6-32.7s-4.5-23.7-13.6-32.7c-2-2-4.1-3.8-6.4-5.3.5-2.7.8-5.4.8-8.2,0-25.5-20.7-46.2-46.2-46.2s-5.6.3-8.3.8c-1.6-2.2-3.3-4.4-5.3-6.4-18-18-47.3-18-65.3,0-2,2-3.8,4.1-5.3,6.4-2.7-.5-5.4-.8-8.2-.8-12.8,0-24.3,5.2-32.7,13.5-8.4,8.4-13.6,19.9-13.6,32.7Z"/>
</svg>